<svg xmlns="http://www.w3.org/2000/svg" viewBox="0 0 993.3 768.45"><defs><style>.cls-1{fill:#4a5fc1;}.cls-2{fill:#fff;}</style></defs><title>Asset 1_1</title><g id="Layer_2" data-name="Layer 2"><g id="Layer_1-2" data-name="Layer 1"><circle class="cls-1" cx="679.84" cy="511.97" r="256.48"/><circle class="cls-1" cx="423.36" cy="381.2" r="369.68"/><circle class="cls-1" cx="705.7" cy="287.61" r="287.61"/><circle class="cls-1" cx="261.75" cy="287.61" r="261.75"/><path class="cls-2" d="M434.16,165.34a539.54,539.54,0,0,0,30.72-56.53H434.16Z"/><path class="cls-2" d="M310,108.81H247.06V374.44A736.94,736.94,0,0,0,310,319.05Z"/><path class="cls-2" d="M310,319.05a736.94,736.94,0,0,1-62.91,55.39v2.38A265.25,265.25,0,0,0,287,517.05c7.49-4,15.18-8.49,23-13.46Z"/><path class="cls-2" d="M434.16,303.38H512c44.87-63.44,77.14-129.45,81.59-183.55a271.73,271.73,0,0,0-76.63-11H464.88a539.54,539.54,0,0,1-30.72,56.53Z"/><path class="cls-2" d="M434.16,426.7V590.06c55.2-39.66,115.25-99.28,163.91-163.36Z"/><path class="cls-2" d="M599.74,303.38V121.81c-2-.65-4.08-1.37-6.16-2-4.45,54.1-36.72,120.11-81.59,183.55Z"/><path class="cls-2" d="M310,503.59c-7.84,5-15.53,9.48-23,13.46a267,267,0,0,0,23,31.61Z"/><path class="cls-2" d="M723.93,205V495.12c27.85-40.93,50.17-82.57,62.85-121.08A265.7,265.7,0,0,0,723.93,205Z"/><path class="cls-2" d="M599.74,426.7h-1.67c-48.66,64.08-108.71,123.7-163.91,163.36v41.77a270.18,270.18,0,0,0,82.79,13h76.54c2.09-1.9,4.16-3.9,6.25-5.84Z"/><path class="cls-2" d="M786.78,374c-12.68,38.51-35,80.15-62.85,121.08V644.83h62.92v-268C786.85,375.88,786.8,375,786.78,374Z"/><path class="cls-2" d="M599.74,639c-2.09,1.94-4.16,3.94-6.25,5.84h6.25Z"/></g></g></svg>