<svg xmlns="http://www.w3.org/2000/svg" viewBox="0 0 1920 1080"><defs><style>.cls-1{fill:#1a1a1a;}.cls-2{fill:#383838;}</style></defs><title>Asset 3</title><g id="Layer_2" data-name="Layer 2"><g id="Layer_1-2" data-name="Layer 1"><rect class="cls-1" width="1920" height="1080"/><path class="cls-2" d="M879.77,794.46l-73.44-19.33c-7.7-2-12-9.28-9.87-16.26L960.79,245.54c2.17-7,10.23-10.92,17.94-9l73.43,19.33c7.71,2,12,9.28,9.88,16.26L897.71,785.5C895.42,792.49,887.47,796.53,879.77,794.46ZM742.53,672l52.36-50.65a12.28,12.28,0,0,0-1-18.78l-109.07-87,109.07-87c6.14-4.91,6.62-13.43,1-18.78l-52.36-50.65a15.54,15.54,0,0,0-20.47-.55L548.58,505.91a12.22,12.22,0,0,0,0,19.11L722.06,672.51a15.41,15.41,0,0,0,20.47-.55Zm393.91.66,173.47-147.49a12.22,12.22,0,0,0,0-19.11l-173.47-147.6A15.67,15.67,0,0,0,1116,359l-52.37,50.65a12.28,12.28,0,0,0,1,18.78l109.08,87.12-109.08,87c-6.14,4.91-6.62,13.43-1,18.78L1116,672c5.42,5.35,14.57,5.57,20.47.66Z"/><path class="cls-2" d="M64.9,335.43,51.8,332a2.31,2.31,0,0,1-1.76-2.9l29.33-91.62a2.63,2.63,0,0,1,3.2-1.59l13.1,3.45a2.31,2.31,0,0,1,1.76,2.9L68.11,333.83A2.63,2.63,0,0,1,64.9,335.43ZM40.41,313.57l9.35-9a2.19,2.19,0,0,0-.17-3.35L30.12,285.65l19.47-15.53a2.18,2.18,0,0,0,.17-3.35l-9.35-9a2.76,2.76,0,0,0-3.65-.1l-31,26.3a2.17,2.17,0,0,0,0,3.41l31,26.33a2.76,2.76,0,0,0,3.65-.1Zm70.3.12,31-26.33a2.17,2.17,0,0,0,0-3.41l-31-26.34a2.78,2.78,0,0,0-3.65.1l-9.35,9a2.19,2.19,0,0,0,.18,3.35l19.46,15.55L97.89,301.18a2.17,2.17,0,0,0-.18,3.35l9.35,9a2.78,2.78,0,0,0,3.65.12Z"/><path class="cls-2" d="M1564.9,1069.9l-13.1-3.45a2.31,2.31,0,0,1-1.76-2.9l29.33-91.61a2.62,2.62,0,0,1,3.2-1.6l13.1,3.45a2.31,2.31,0,0,1,1.76,2.9l-29.32,91.62A2.63,2.63,0,0,1,1564.9,1069.9ZM1540.41,1048l9.35-9a2.19,2.19,0,0,0-.17-3.35l-19.47-15.53,19.47-15.53a2.18,2.18,0,0,0,.17-3.35l-9.35-9a2.77,2.77,0,0,0-3.65-.1l-31,26.31a2.17,2.17,0,0,0,0,3.41l31,26.32a2.74,2.74,0,0,0,3.65-.1Zm70.3.12,31-26.33a2.16,2.16,0,0,0,0-3.4l-31-26.35a2.79,2.79,0,0,0-3.65.1l-9.35,9a2.19,2.19,0,0,0,.18,3.35l19.46,15.55-19.46,15.53a2.17,2.17,0,0,0-.18,3.35l9.35,9a2.76,2.76,0,0,0,3.65.12Z"/><path class="cls-2" d="M174.9,220.9l-13.1-3.45a2.31,2.31,0,0,1-1.76-2.9l29.33-91.61a2.62,2.62,0,0,1,3.2-1.6l13.1,3.45a2.31,2.31,0,0,1,1.76,2.9l-29.32,91.62A2.63,2.63,0,0,1,174.9,220.9ZM150.41,199l9.35-9a2.19,2.19,0,0,0-.17-3.35l-19.47-15.53,19.47-15.53a2.18,2.18,0,0,0,.17-3.35l-9.35-9a2.77,2.77,0,0,0-3.65-.1l-31,26.31a2.17,2.17,0,0,0,0,3.41l31,26.32a2.74,2.74,0,0,0,3.65-.1Zm70.3.12,31-26.33a2.16,2.16,0,0,0,0-3.4l-31-26.35a2.79,2.79,0,0,0-3.65.1l-9.35,9a2.19,2.19,0,0,0,.18,3.35l19.46,15.55-19.46,15.53a2.17,2.17,0,0,0-.18,3.35l9.35,9a2.76,2.76,0,0,0,3.65.12Z"/><path class="cls-2" d="M324.9,107.9l-13.1-3.45a2.31,2.31,0,0,1-1.76-2.9L339.37,9.94a2.62,2.62,0,0,1,3.2-1.6l13.1,3.45a2.31,2.31,0,0,1,1.76,2.9l-29.32,91.62A2.63,2.63,0,0,1,324.9,107.9ZM300.41,86l9.35-9a2.19,2.19,0,0,0-.17-3.35L290.12,58.12l19.47-15.53a2.18,2.18,0,0,0,.17-3.35l-9.35-9a2.77,2.77,0,0,0-3.65-.1l-31,26.31a2.17,2.17,0,0,0,0,3.41l31,26.32a2.74,2.74,0,0,0,3.65-.1Zm70.3.12,31-26.33a2.16,2.16,0,0,0,0-3.4l-31-26.35a2.79,2.79,0,0,0-3.65.1l-9.35,9a2.19,2.19,0,0,0,.18,3.35l19.46,15.55L357.89,73.65a2.17,2.17,0,0,0-.18,3.35l9.35,9a2.76,2.76,0,0,0,3.65.12Z"/><path class="cls-2" d="M1840.9,867.9l-13.1-3.45a2.31,2.31,0,0,1-1.76-2.9l29.33-91.61a2.62,2.62,0,0,1,3.2-1.6l13.1,3.45a2.31,2.31,0,0,1,1.76,2.9l-29.32,91.62A2.63,2.63,0,0,1,1840.9,867.9ZM1816.41,846l9.35-9a2.19,2.19,0,0,0-.17-3.35l-19.47-15.53,19.47-15.53a2.18,2.18,0,0,0,.17-3.35l-9.35-9a2.77,2.77,0,0,0-3.65-.1l-31,26.31a2.17,2.17,0,0,0,0,3.41l31,26.32a2.74,2.74,0,0,0,3.65-.1Zm70.3.12,31-26.33a2.16,2.16,0,0,0,0-3.4l-31-26.35a2.79,2.79,0,0,0-3.65.1l-9.35,9a2.19,2.19,0,0,0,.18,3.35l19.46,15.55-19.46,15.53a2.17,2.17,0,0,0-.18,3.35l9.35,9a2.76,2.76,0,0,0,3.65.12Z"/><path class="cls-2" d="M1702.9,961.9l-13.1-3.45a2.31,2.31,0,0,1-1.76-2.9l29.33-91.61a2.62,2.62,0,0,1,3.2-1.6l13.1,3.45a2.31,2.31,0,0,1,1.76,2.9l-29.32,91.62A2.63,2.63,0,0,1,1702.9,961.9ZM1678.41,940l9.35-9a2.19,2.19,0,0,0-.17-3.35l-19.47-15.53,19.47-15.53a2.18,2.18,0,0,0,.17-3.35l-9.35-9a2.77,2.77,0,0,0-3.65-.1l-31,26.31a2.17,2.17,0,0,0,0,3.41l31,26.32a2.74,2.74,0,0,0,3.65-.1Zm70.3.12,31-26.33a2.16,2.16,0,0,0,0-3.4l-31-26.35a2.79,2.79,0,0,0-3.65.1l-9.35,9a2.19,2.19,0,0,0,.18,3.35l19.46,15.55-19.46,15.53a2.17,2.17,0,0,0-.18,3.35l9.35,9a2.76,2.76,0,0,0,3.65.12Z"/><path class="cls-2" d="M117.47,1048.48l-13.1-3.49a2.32,2.32,0,0,1-1.75-2.91l29.59-91.53a2.64,2.64,0,0,1,3.21-1.59l13.1,3.49a2.32,2.32,0,0,1,1.75,2.91l-29.59,91.53A2.64,2.64,0,0,1,117.47,1048.48ZM93,1026.55l9.37-9a2.19,2.19,0,0,0-.16-3.35L82.83,998.59l19.51-15.47a2.17,2.17,0,0,0,.18-3.35L93.2,970.7a2.77,2.77,0,0,0-3.65-.1l-31,26.21a2.18,2.18,0,0,0,0,3.41l30.89,26.41a2.75,2.75,0,0,0,3.65-.08Zm70.3.32,31-26.24a2.18,2.18,0,0,0,0-3.41L163.5,970.79a2.78,2.78,0,0,0-3.65.09l-9.37,9a2.19,2.19,0,0,0,.16,3.35l19.42,15.61-19.51,15.47a2.17,2.17,0,0,0-.18,3.35l9.32,9.07a2.77,2.77,0,0,0,3.65.13Z"/><path class="cls-2" d="M394.05,847.28,381,843.79a2.32,2.32,0,0,1-1.76-2.91l29.6-91.53a2.63,2.63,0,0,1,3.2-1.59l13.1,3.49a2.32,2.32,0,0,1,1.75,2.91l-29.59,91.53A2.63,2.63,0,0,1,394.05,847.28Zm-24.43-21.94,9.37-9a2.18,2.18,0,0,0-.16-3.35l-19.42-15.59,19.51-15.47a2.17,2.17,0,0,0,.18-3.35l-9.32-9.07a2.77,2.77,0,0,0-3.65-.11l-31,26.22a2.19,2.19,0,0,0,0,3.41L366,825.43a2.74,2.74,0,0,0,3.65-.09Zm70.3.32,31-26.23a2.18,2.18,0,0,0,0-3.41l-30.88-26.43a2.8,2.8,0,0,0-3.66.09l-9.37,9a2.19,2.19,0,0,0,.16,3.35l19.42,15.61-19.51,15.47a2.17,2.17,0,0,0-.18,3.35l9.32,9.07a2.77,2.77,0,0,0,3.65.12Z"/><path class="cls-2" d="M255.78,940.88l-13.1-3.49a2.32,2.32,0,0,1-1.75-2.91L270.52,843a2.65,2.65,0,0,1,3.21-1.59l13.1,3.49a2.32,2.32,0,0,1,1.75,2.91L259,939.29A2.63,2.63,0,0,1,255.78,940.88Zm-24.43-21.94,9.37-9a2.19,2.19,0,0,0-.16-3.35L221.14,891l19.51-15.47a2.17,2.17,0,0,0,.18-3.35l-9.32-9.07a2.77,2.77,0,0,0-3.65-.11l-31,26.22a2.18,2.18,0,0,0,0,3.41L227.7,919a2.74,2.74,0,0,0,3.65-.09Zm70.3.33,31-26.24a2.18,2.18,0,0,0,0-3.41l-30.89-26.43a2.78,2.78,0,0,0-3.65.09l-9.37,9a2.19,2.19,0,0,0,.16,3.35l19.42,15.61-19.51,15.47a2.17,2.17,0,0,0-.18,3.35l9.32,9.07a2.77,2.77,0,0,0,3.65.13Z"/><path class="cls-2" d="M1461.47,350.48l-13.1-3.49a2.32,2.32,0,0,1-1.75-2.91l29.59-91.53a2.64,2.64,0,0,1,3.21-1.59l13.1,3.49a2.32,2.32,0,0,1,1.75,2.91l-29.59,91.53A2.64,2.64,0,0,1,1461.47,350.48ZM1437,328.55l9.37-9a2.19,2.19,0,0,0-.16-3.35l-19.42-15.59,19.51-15.47a2.17,2.17,0,0,0,.18-3.35l-9.32-9.07a2.77,2.77,0,0,0-3.65-.1l-31,26.21a2.18,2.18,0,0,0,0,3.41l30.89,26.41a2.75,2.75,0,0,0,3.65-.08Zm70.3.32,31-26.24a2.18,2.18,0,0,0,0-3.41l-30.89-26.43a2.78,2.78,0,0,0-3.65.09l-9.37,9a2.19,2.19,0,0,0,.16,3.35l19.42,15.61-19.51,15.47a2.17,2.17,0,0,0-.18,3.35l9.32,9.07a2.77,2.77,0,0,0,3.65.13Z"/><path class="cls-2" d="M1738.05,149.28,1725,145.79a2.32,2.32,0,0,1-1.76-2.91l29.6-91.53a2.63,2.63,0,0,1,3.2-1.59l13.1,3.49a2.32,2.32,0,0,1,1.75,2.91l-29.59,91.53A2.63,2.63,0,0,1,1738.05,149.28Zm-24.43-21.94,9.37-9a2.18,2.18,0,0,0-.16-3.35l-19.42-15.59,19.51-15.47a2.17,2.17,0,0,0,.18-3.35l-9.32-9.07a2.77,2.77,0,0,0-3.65-.11l-31,26.22a2.19,2.19,0,0,0,0,3.41L1710,127.43a2.74,2.74,0,0,0,3.65-.09Zm70.3.32,31-26.23a2.18,2.18,0,0,0,0-3.41l-30.88-26.43a2.8,2.8,0,0,0-3.66.09l-9.37,9a2.19,2.19,0,0,0,.16,3.35l19.42,15.61-19.51,15.47a2.17,2.17,0,0,0-.18,3.35l9.32,9.07a2.77,2.77,0,0,0,3.65.12Z"/><path class="cls-2" d="M1599.78,242.88l-13.1-3.49a2.32,2.32,0,0,1-1.75-2.91L1614.52,145a2.65,2.65,0,0,1,3.21-1.59l13.1,3.49a2.32,2.32,0,0,1,1.75,2.91L1603,241.29A2.63,2.63,0,0,1,1599.78,242.88Zm-24.43-21.94,9.37-9a2.19,2.19,0,0,0-.16-3.35L1565.14,193l19.51-15.47a2.17,2.17,0,0,0,.18-3.35l-9.32-9.07a2.77,2.77,0,0,0-3.65-.11l-31,26.22a2.18,2.18,0,0,0,0,3.41L1571.7,221a2.74,2.74,0,0,0,3.65-.09Zm70.3.33,31-26.24a2.18,2.18,0,0,0,0-3.41l-30.89-26.43a2.78,2.78,0,0,0-3.65.09l-9.37,9a2.19,2.19,0,0,0,.16,3.35l19.42,15.61-19.51,15.47a2.17,2.17,0,0,0-.18,3.35l9.32,9.07a2.77,2.77,0,0,0,3.65.13Z"/></g></g></svg>